<svg width="1920" height="340" viewBox="0 0 1920 340" fill="none" xmlns="http://www.w3.org/2000/svg">
<path fill-rule="evenodd" clip-rule="evenodd" d="M528 114C238 114 0 199 0 199V917C0 917 238 832 528 832C668.318 832 777.732 850.925 890.68 870.461C1011.17 891.301 1135.67 912.836 1306 912.836C1636 912.836 1920 830 1920 830V112C1920 112 1636 194.836 1306 194.836C1135.67 194.836 1011.17 173.301 890.68 152.461C777.732 132.925 668.318 114 528 114Z" fill="#3C4852"/>
<path d="M60.9998 23C-23.0002 -40.9999 -96.0003 49.0005 -114 97.0002C-132 145 -120.6 238.4 -39.0003 284C62.9997 341 135 256 93.9998 199C52.9998 142 152 92.3333 60.9998 23Z" fill="#FFCC80"/>
</svg>
