<svg width="1995" height="1120" viewBox="0 0 1995 1120" fill="none" xmlns="http://www.w3.org/2000/svg">
<path d="M74.6855 221.701H1994.69V921.701C1994.69 921.701 1848.69 888.474 1560.69 888.474C1272.69 888.474 1078.69 1101.7 618.686 1101.7C268.686 1101.7 74.6855 1031.7 74.6855 1031.7V221.701Z" fill="#F8F8F8"/>
<path d="M207.686 884.701C152.686 850.512 93.0191 878.034 72.6857 895.701C-72.3143 957.701 38.6857 1133.7 72.6857 1110.7C106.686 1087.7 122.686 1090.7 162.686 1102.7C202.686 1114.7 274.686 1139.7 300.686 1090.7C326.686 1041.7 282.686 1025.7 244.686 1002.7C206.686 979.701 250.686 911.431 207.686 884.701Z" fill="#FFCC80"/>
<path d="M269.685 281.701C231.685 227.701 241.352 203.368 249.685 177.701C254.352 130.035 328.285 28.5012 586.685 3.70121C909.685 -27.2988 988.685 145.701 992.685 177.701C996.685 209.701 974.685 289.701 910.685 301.701C846.685 313.701 836.81 316.701 799.685 360.701C772.685 392.701 740.685 455.701 636.685 455.701C532.685 455.701 512.685 411.701 454.685 360.701C356.685 301.701 307.685 335.701 269.685 281.701Z" fill="white"/>
<path d="M203.392 301.841C160.992 300.241 139.725 267.174 134.392 250.841C108.392 199.841 192.392 150.841 330.392 146.841C440.792 143.641 442.392 196.174 429.392 222.841C424.725 240.508 406.992 278.441 373.392 288.841C331.392 301.841 333.392 286.841 292.392 283.841C251.392 280.841 256.392 303.841 203.392 301.841Z" fill="#FFCC80"/>
</svg>
