<svg width="864" height="456" viewBox="0 0 864 456" fill="none" xmlns="http://www.w3.org/2000/svg">
<path d="M140 281.701C102 227.701 111.667 203.368 120 177.701C124.666 130.035 198.6 28.5012 457 3.70121C780 -27.2988 859 145.701 863 177.701C867 209.701 845 289.701 781 301.701C717 313.701 707.125 316.701 670 360.701C643 392.701 611 455.701 507 455.701C403 455.701 383 411.701 325 360.701C227 301.701 178 335.701 140 281.701Z" fill="white"/>
<path d="M73.706 301.841C31.306 300.241 10.0393 267.174 4.70597 250.841C-21.294 199.841 62.706 150.841 200.706 146.841C311.106 143.641 312.706 196.174 299.706 222.841C295.039 240.508 277.306 278.441 243.706 288.841C201.706 301.841 203.706 286.841 162.706 283.841C121.706 280.841 126.706 303.841 73.706 301.841Z" fill="#FFCC80"/>
</svg>
