<svg width="10" height="13" viewBox="0 0 10 13" fill="none" xmlns="http://www.w3.org/2000/svg">
<path d="M3.2627 11.3904H6.65085C5.72356 12.4016 4.95587 12.9999 4.95587 12.9999C4.95587 12.9999 4.18999 12.4016 3.2627 11.3904Z" fill="#3C4852"/>
<path d="M3.16494 2.84766C2.92776 2.84818 2.69536 2.91187 2.49344 3.03171C2.29152 3.15156 2.12796 3.32286 2.02086 3.52666C1.91376 3.73048 1.86729 3.95885 1.88659 4.18652C1.90589 4.4142 1.99022 4.63228 2.13024 4.81666C2.27025 5.00103 2.46051 5.14451 2.67994 5.23121C2.89937 5.31791 3.13942 5.34446 3.37355 5.3079C3.60767 5.27135 3.82673 5.17313 4.00649 5.02412C4.18625 4.8751 4.31969 4.68109 4.39207 4.46355C4.39171 4.42217 4.36893 3.40374 3.16494 2.84766ZM3.17008 4.60894C3.06228 4.60894 2.95689 4.57816 2.86727 4.52047C2.77763 4.46279 2.70777 4.3808 2.66651 4.28488C2.62525 4.18896 2.61446 4.08341 2.6355 3.98158C2.65653 3.87974 2.70844 3.78621 2.78467 3.71279C2.86089 3.63937 2.95802 3.58937 3.06375 3.56912C3.16948 3.54886 3.27907 3.55925 3.37867 3.59899C3.47827 3.63872 3.5634 3.70601 3.62329 3.79233C3.68318 3.87867 3.71515 3.98016 3.71515 4.08399C3.71515 4.22322 3.65773 4.35674 3.55551 4.45518C3.45329 4.55363 3.31465 4.60894 3.17008 4.60894Z" fill="#3C4852"/>
<path d="M5.52148 4.45541C5.59237 4.67389 5.7247 4.86914 5.90375 5.01947C6.08281 5.1698 6.30159 5.26932 6.53578 5.30699C6.76999 5.34465 7.01042 5.31898 7.2304 5.23281C7.45037 5.14665 7.64126 5.00339 7.78186 4.81893C7.92246 4.63446 8.00727 4.41602 8.02685 4.18789C8.04643 3.95976 8.00003 3.73086 7.89281 3.52661C7.78558 3.32237 7.62173 3.15078 7.41944 3.03094C7.21716 2.91108 6.98436 2.84763 6.74694 2.84766C5.59486 3.38039 5.52478 4.33762 5.52148 4.45541ZM6.74511 3.55974C6.85282 3.55966 6.95815 3.59041 7.04774 3.64806C7.13734 3.70572 7.20717 3.78769 7.24843 3.88363C7.28969 3.97957 7.30051 4.08516 7.2795 4.18702C7.25851 4.28888 7.20665 4.38245 7.13047 4.45589C7.05431 4.52932 6.95725 4.57933 6.8516 4.59958C6.74595 4.61982 6.63644 4.60939 6.53693 4.56962C6.43743 4.52984 6.3524 4.4625 6.2926 4.37612C6.2328 4.28974 6.20091 4.1882 6.20099 4.08434C6.20107 3.94536 6.25834 3.81209 6.3602 3.71375C6.46206 3.6154 6.60021 3.56001 6.74437 3.55974H6.74511Z" fill="#3C4852"/>
<path d="M9.91351 4.93686C9.91351 7.0913 8.74787 9.06372 7.54715 10.5239H2.36744C1.16563 9.06372 1.92731e-06 7.0913 1.92731e-06 4.93686C-0.000694392 4.16705 0.187299 3.40825 0.548275 2.72388C0.83852 2.92342 1.15514 3.0836 1.48947 3.20003C1.36571 3.44902 1.28435 3.71607 1.2486 3.99064C0.982872 6.15829 2.74722 6.39314 4.95858 6.39314C7.16995 6.39314 8.93355 6.15829 8.66782 3.99064C8.63224 3.71544 8.55049 3.44785 8.42586 3.19861C8.75966 3.08218 9.07607 2.92277 9.36669 2.7246C9.72723 3.4088 9.91473 4.16738 9.91351 4.93686Z" fill="#3C4852"/>
<path d="M0.50361 9.53333H9.41027C9.54373 9.53333 9.67174 9.58548 9.76611 9.67833C9.86049 9.77116 9.91351 9.89708 9.91351 10.0284C9.91356 10.0934 9.90057 10.1578 9.87531 10.2179C9.85003 10.278 9.81298 10.3327 9.76624 10.3787C9.71951 10.4247 9.66402 10.4612 9.60293 10.4861C9.54185 10.511 9.47638 10.5238 9.41027 10.5238H0.50361C0.437474 10.5238 0.371988 10.511 0.310886 10.4861C0.249786 10.4612 0.194268 10.4247 0.147503 10.3787C0.100739 10.3327 0.0636437 10.2781 0.0383349 10.218C0.0130262 10.1579 0 10.0934 0 10.0284C-1.76135e-08 9.96334 0.0130289 9.89893 0.0383423 9.83884C0.0636555 9.77876 0.100757 9.72416 0.147526 9.67819C0.194295 9.63222 0.249815 9.59575 0.310914 9.5709C0.372012 9.54604 0.437492 9.53328 0.50361 9.53333Z" fill="#3C4852"/>
<path d="M9.91351 0.247919C9.54797 0.602089 9.18428 0.727326 8.79009 0.727326C7.84117 0.727326 6.71481 0 4.9573 0C3.1998 0 2.07344 0.727326 1.12342 0.727326C0.729231 0.727326 0.365901 0.602454 0 0.247919C0 1.47948 0.802705 2.39156 2.49041 2.70483H2.48563C2.72517 2.7586 2.95802 2.83843 3.17996 2.9429C4.38421 3.51687 4.40698 4.56807 4.40735 4.61079V4.61334L4.954 5.44764L5.50506 4.61662C5.50506 4.61662 5.50506 4.61151 5.50506 4.60348C5.50909 4.4819 5.57853 3.49387 6.73208 2.944C6.95385 2.83982 7.18644 2.76011 7.42567 2.70629H7.42273C9.11117 2.39229 9.91351 1.48022 9.91351 0.247919Z" fill="#3C4852"/>
</svg>
